<svg width="192" height="192" xmlns="http://www.w3.org/2000/svg">
 <g>
  <title>background</title>
  <rect id="canvas_background" height="194" width="194" y="-1" x="-1"/>
  <g display="none" overflow="visible" y="0" x="0" height="100%" width="100%" id="canvasGrid">
   <rect fill="url(#gridpattern)" stroke-width="0" y="0" x="0" height="100%" width="100%"/>
  </g>
 </g>
 <g>
  <title>Layer 1</title>
  <g id="svg_9">
   <path id="svg_4" d="m64.804977,9.416305c-0.726921,0 -1.696106,0.242292 -2.907616,1.211488c-2.422974,-1.211488 -5.088287,-1.453803 -7.268974,0.484609c-3.634491,-0.242315 -4.603691,0.484587 -5.572899,1.696098c-0.726883,0 -5.81517,-0.726902 -7.99588,2.665293c-5.815197,-0.726902 -7.75359,3.392198 -5.572884,7.268979c-1.211514,1.696095 -2.423,3.392197 0.24229,7.026684c-0.969193,1.938416 -0.24229,3.876804 1.938396,6.542099c-0.484589,2.665295 0.726898,4.603706 2.907608,6.057491c-0.484604,3.876801 3.392174,6.057484 4.361389,6.784389c0.484589,2.180702 1.453781,4.119095 5.81517,5.330608c0.726913,3.149883 3.392227,3.634487 5.815201,4.36137c-8.480492,4.846004 -15.507172,11.388092 -15.507172,27.137558l-1.211494,2.18071c-9.691998,5.815193 -18.172485,24.472267 -4.846001,39.73716c0.9692,4.84597 2.423004,8.238182 3.876801,12.114983c1.9384,15.264877 14.780258,22.291565 18.172455,23.260757c4.845993,3.634506 10.176582,7.268997 17.445602,9.934265c6.784393,6.784439 14.053375,9.449707 21.32235,9.449707l0.484589,0c7.26902,0 14.538002,-2.665268 21.322395,-9.449707c7.268982,-2.665268 12.357277,-6.299759 17.445564,-9.934265c3.392212,-0.969193 16.2341,-7.99588 18.172485,-23.260757c1.453796,-3.876801 2.907562,-7.269012 3.634491,-12.114983c13.568787,-15.264893 4.846008,-33.921967 -4.603699,-39.73716l-1.211487,-2.18071c0,-15.749466 -7.269012,-22.291553 -15.507202,-27.137558c2.423004,-0.726883 5.088318,-1.211487 5.815216,-4.36137c4.361359,-1.211514 5.330597,-3.149906 5.815155,-5.330608c0.969238,-0.726906 4.846008,-2.907589 4.36142,-6.784389c2.180695,-1.453785 3.392212,-3.392197 2.907623,-6.057491c2.180695,-2.665295 2.665253,-4.603683 1.696045,-6.542099c2.907623,-3.634487 1.696136,-5.330589 0.48465,-7.026684c1.938385,-3.876781 0.242279,-7.995881 -5.572906,-7.268979c-2.180725,-3.392195 -7.269012,-2.665293 -7.995911,-2.665293c-0.969208,-1.211512 -1.938385,-1.938414 -5.572876,-1.696098c-2.180725,-1.938412 -4.845978,-1.696096 -7.511292,-0.484609c-3.14991,-2.665294 -5.088295,-0.484607 -7.511284,0.242293c-3.634491,-1.211489 -4.603714,0.484611 -6.542099,0.969196c-4.11911,-0.726881 -5.330582,1.21151 -7.268982,3.149902l-2.180725,0c-6.299759,3.634488 -9.449661,10.903489 -10.418877,14.780271c-1.211464,-3.876781 -4.119072,-11.145782 -10.418877,-14.780271l-2.180687,0c-2.180687,-1.938393 -3.392197,-3.876783 -7.511276,-3.149902c-1.696136,-0.484586 -2.665314,-2.180685 -6.299805,-0.969196c-1.696091,-0.484587 -3.149895,-1.696096 -4.845993,-1.453781z"/>
   <path id="svg_5" fill="#75a928" d="m52.447701,25.408066c16.476349,8.480488 26.16835,15.264881 31.256645,21.322369c-2.665321,10.661198 -16.476395,11.145805 -21.806984,10.903492c1.21151,-0.484608 1.938393,-1.211491 2.423027,-1.938396c-1.453804,-0.969196 -5.815216,-0.242313 -9.207413,-1.938408c1.21151,-0.24229 1.938393,-0.484592 2.423012,-1.453789c-2.9076,-0.969196 -6.299789,-1.696095 -7.995895,-3.392189c0.969193,0 1.9384,0.24229 3.149902,-0.726906c-2.665298,-1.453804 -5.572906,-2.423 -7.753586,-4.845997c1.453781,0 2.907593,0 3.392197,-0.484589c-2.423004,-1.453804 -4.603706,-3.149902 -6.299805,-5.088295c1.938393,0.242294 2.665298,0 3.149902,-0.242294c-1.696098,-1.938412 -4.119095,-3.63451 -5.330589,-5.815193c1.453789,0.484585 2.907585,0.726902 3.876785,0c-0.726906,-1.453804 -3.392197,-2.423 -5.088295,-5.815197c1.696098,0.242294 3.149902,0.484589 3.634506,0c-0.726898,-2.665295 -1.938408,-4.361393 -3.149902,-6.057487c3.149902,0 8.23819,0 7.99588,-0.242317l-2.180679,-2.180683c3.392197,-0.726902 6.542084,0.24229 8.965096,0.969193c0.969185,-0.969193 0,-1.938389 -1.453804,-2.907586c2.907562,0.242294 5.330597,0.969197 7.511276,1.696099c1.211502,-0.9692 -0.726883,-2.180707 -1.696106,-3.149903c4.119125,0.726902 5.815186,1.938395 7.753609,3.149903c1.211472,-1.453805 0,-2.423001 -0.969208,-3.392196c3.149895,1.211489 4.846001,2.665294 6.542091,4.119075c0.484589,-0.726879 1.453804,-1.453781 0.484589,-3.14988c2.180687,1.211493 3.876823,2.665296 5.088295,4.36139c1.453804,-0.726902 0.726921,-1.938389 0.726921,-3.149898c2.422981,1.938388 3.876778,3.876803 5.815178,5.815192l0.969208,-2.423c5.330597,5.330589 13.326454,18.899372 1.9384,24.229977c-9.691994,-7.995899 -21.322395,-13.811096 -34.164253,-18.172485zm87.470177,0c-16.476402,8.480488 -26.168373,15.264881 -31.25666,21.322369c2.665283,10.661198 16.718643,11.145805 21.806984,10.903492c-0.969208,-0.484608 -1.938416,-1.211491 -2.180725,-1.938396c1.211517,-0.969196 5.815216,-0.242313 8.965118,-1.938408c-1.211517,-0.24229 -1.938446,-0.484592 -2.423035,-1.453789c3.149902,-0.969196 6.299805,-1.696095 8.23819,-3.392189c-0.969208,0 -1.938385,0.24229 -3.392181,-0.726906c2.665283,-1.453804 5.572876,-2.423 7.753601,-4.845997c-1.453827,0 -2.907593,0 -3.392181,-0.484589c2.665283,-1.453804 4.603668,-3.149902 6.299744,-5.088295c-1.938385,0.242294 -2.665253,0 -3.149902,-0.242294c1.938416,-1.938412 4.119141,-3.63451 5.330597,-5.815193c-1.453766,0.484585 -2.665283,0.726902 -3.634491,0c0.484589,-1.453804 3.149902,-2.423 4.846008,-5.815197c-1.453796,0.242294 -3.149902,0.484589 -3.392212,0c0.726929,-2.665295 1.938416,-4.361393 2.907623,-6.057487c-3.149902,0 -7.995911,0 -7.753601,-0.242317l1.938416,-2.180683c-3.149872,-0.726902 -6.542084,0.24229 -8.722809,0.969193c-1.211487,-0.969193 0,-1.938389 1.211517,-2.907586c-2.665283,0.242294 -5.088318,0.969197 -7.268982,1.696099c-1.211517,-0.9692 0.726868,-2.180707 1.696106,-3.149903c-4.36142,0.726902 -6.057526,1.938395 -7.753624,3.149903c-1.211517,-1.453805 -0.24231,-2.423001 0.726929,-3.392196c-3.149918,1.211489 -4.846008,2.665294 -6.542099,4.119075c-0.484589,-0.726879 -1.453796,-1.453781 -0.24231,-3.14988c-2.423004,1.211493 -4.11911,2.665296 -5.330627,4.36139c-1.211456,-0.726902 -0.726868,-1.938389 -0.726868,-3.149898c-2.422974,1.938388 -3.876785,3.876803 -5.572891,5.815192c-0.484619,-0.242294 -0.726913,-1.211487 -0.969208,-2.423c-5.572891,5.330589 -13.326492,18.899372 -2.180679,24.229977c9.691986,-7.995899 21.322388,-13.811096 34.164253,-18.172485z"/>
   <path id="svg_6" fill="#bc1142" d="m116.172493,134.927521a19.62627,18.172474 0 1 1 -39.494835,0a19.62627,18.172474 0 1 1 39.494835,0zm-31.256638,-51.852127a20.837769,17.687876 -56 1 1 -23.018494,34.891151a20.837769,17.687876 -56 1 1 23.018494,-34.891151z"/>
   <path id="svg_7" fill="#bc1142" d="m106.965126,82.106194a17.687876,20.837769 -34 1 0 23.018456,34.891121a17.687876,20.837769 -34 1 0 -23.018456,-34.891121zm-62.755615,9.691978c8.722778,-2.423004 2.907578,36.58725 -4.119095,33.437355c-7.995888,-6.542107 -10.661201,-24.956863 4.119095,-33.437355z"/>
   <path id="svg_8" fill="#bc1142" d="m146.217651,91.313568c-8.965057,-2.422989 -3.149902,36.587273 4.11908,33.437355c7.995911,-6.542084 10.418915,-24.956871 -4.11908,-33.437355zm-30.045158,-28.833645c15.264885,-2.665298 27.864494,6.299778 27.379875,23.018459c-0.484619,6.299789 -32.952751,-22.049259 -27.379875,-23.018459zm-42.160149,-0.484612c-15.022545,-2.665291 -27.864449,6.299801 -27.379829,23.018467c0.484573,6.299789 33.195045,-22.049267 27.379829,-23.018467zm22.049271,-3.876781c-9.207367,-0.24229 -17.930153,6.784393 -17.930153,10.661171c0,5.088295 7.268974,9.934296 17.930153,10.176582c10.903511,0 17.930199,-4.119095 17.930199,-9.207382c0,-5.572884 -9.934296,-11.872662 -17.930199,-11.630371zm0.484627,100.796646c7.995865,-0.242279 18.414749,2.665298 18.657028,6.542114c0,3.634476 -9.691956,12.114975 -19.141655,11.872681c-9.93425,0.484589 -19.383957,-7.995895 -19.383957,-10.903503c0,-4.361389 11.872688,-7.753571 19.868584,-7.511292zm-29.318291,-22.776154c5.572929,6.784378 8.238205,18.657059 3.634491,22.29158c-4.603661,2.665268 -15.264839,1.453781 -23.01844,-9.449707c-5.330589,-9.207382 -4.603683,-18.657074 -0.9692,-21.564674c5.572899,-3.149887 13.811096,1.211494 20.353149,8.722801zm57.425041,-2.180725c-6.05751,7.269012 -9.449722,20.353195 -5.088303,24.472305c4.361404,3.149872 15.749458,2.665268 24.229958,-8.965103c6.057495,-7.753586 4.11911,-21.080078 0.48465,-24.472282c-5.088348,-4.119064 -12.599609,1.211517 -19.626305,8.96508z"/>
  </g>
 </g>
</svg>