<?xml version="1.0" encoding="UTF-8" standalone="no"?>
<svg
   xmlns:dc="http://purl.org/dc/elements/1.1/"
   xmlns:cc="http://creativecommons.org/ns#"
   xmlns:rdf="http://www.w3.org/1999/02/22-rdf-syntax-ns#"
   xmlns:svg="http://www.w3.org/2000/svg"
   xmlns="http://www.w3.org/2000/svg"
   xmlns:sodipodi="http://sodipodi.sourceforge.net/DTD/sodipodi-0.dtd"
   xmlns:inkscape="http://www.inkscape.org/namespaces/inkscape"
   width="720"
   height="720"
   version="1.1"
   id="svg12"
   sodipodi:docname="logo.svg"
   inkscape:version="0.92.2 5c3e80d, 2017-08-06">
  <metadata
     id="metadata18">
    <rdf:RDF>
      <cc:Work
         rdf:about="">
        <dc:format>image/svg+xml</dc:format>
        <dc:type
           rdf:resource="http://purl.org/dc/dcmitype/StillImage" />
        <dc:title></dc:title>
      </cc:Work>
    </rdf:RDF>
  </metadata>
  <defs
     id="defs16" />
  <sodipodi:namedview
     pagecolor="#ffffff"
     bordercolor="#666666"
     borderopacity="1"
     objecttolerance="10"
     gridtolerance="10"
     guidetolerance="10"
     inkscape:pageopacity="0"
     inkscape:pageshadow="2"
     inkscape:window-width="1095"
     inkscape:window-height="763"
     id="namedview14"
     showgrid="false"
     inkscape:zoom="0.32777778"
     inkscape:cx="278.39252"
     inkscape:cy="357"
     inkscape:window-x="0"
     inkscape:window-y="0"
     inkscape:window-maximized="0"
     inkscape:current-layer="svg12" />
  <path
     d="m 236,2 c -3,0 -7,1 -12,5 -10,-5 -21,-6 -30,2 -15,-1 -19,2 -23,7 -3,0 -24,-3 -33,11 -24,-3 -32,14 -23,30 -5,7 -10,14 1,29 -4,8 -1,16 8,27 -2,11 3,19 12,25 -2,16 14,25 18,28 2,9 6,17 24,22 3,13 14,15 24,18 -35,20 -64,47 -64,112 l -5,9 c -40,24 -75,101 -20,164 4,20 10,34 16,50 8,63 61,92 75,96 20,15 42,30 72,41 28,28 58,39 88,39 h 2 c 30,0 60,-11 88,-39 30,-11 51,-26 72,-41 14,-4 67,-33 75,-96 6,-16 12,-30 15,-50 56,-63 20,-140 -19,-164 l -5,-9 c 0,-65 -30,-92 -64,-112 10,-3 21,-5 24,-18 18,-5 22,-13 24,-22 4,-3 20,-12 18,-28 9,-6 14,-14 12,-25 9,-11 11,-19 7,-27 12,-15 7,-22 2,-29 8,-16 1,-33 -23,-30 C 583,13 562,16 559,16 555,11 551,8 536,9 527,1 516,2 505,7 492,-4 484,5 474,8 459,3 455,10 447,12 430,9 425,17 417,25 h -9 C 382,40 369,70 365,86 360,70 348,40 322,25 h -9 C 304,17 299,9 282,12 275,10 271,3 256,8 249,6 243,1 236,2 Z"
     id="path2"
     inkscape:connector-curvature="0" />
  <path
     d="m 185,68 c 68,35 108,63 129,88 -11,44 -68,46 -90,45 5,-2 8,-5 10,-8 -6,-4 -24,-1 -38,-8 5,-1 8,-2 10,-6 -12,-4 -26,-7 -33,-14 4,0 8,1 13,-3 -11,-6 -23,-10 -32,-20 6,0 12,0 14,-2 -10,-6 -19,-13 -26,-21 8,1 11,0 13,-1 -7,-8 -17,-15 -22,-24 6,2 12,3 16,0 -3,-6 -14,-10 -21,-24 7,1 13,2 15,0 -3,-11 -8,-18 -13,-25 13,0 34,0 33,-1 l -9,-9 c 14,-3 27,1 37,4 4,-4 0,-8 -6,-12 12,1 22,4 31,7 5,-4 -3,-9 -7,-13 17,3 24,8 32,13 5,-6 0,-10 -4,-14 13,5 20,11 27,17 2,-3 6,-6 2,-13 9,5 16,11 21,18 6,-3 3,-8 3,-13 10,8 16,16 24,24 l 4,-10 c 22,22 55,78 8,100 C 286,110 238,86 185,68 Z m 361,0 c -68,35 -108,63 -129,88 11,44 69,46 90,45 -4,-2 -8,-5 -9,-8 5,-4 24,-1 37,-8 -5,-1 -8,-2 -10,-6 13,-4 26,-7 34,-14 -4,0 -8,1 -14,-3 11,-6 23,-10 32,-20 -6,0 -12,0 -14,-2 11,-6 19,-13 26,-21 -8,1 -11,0 -13,-1 8,-8 17,-15 22,-24 -6,2 -11,3 -15,0 2,-6 13,-10 20,-24 -6,1 -13,2 -14,0 3,-11 8,-18 12,-25 -13,0 -33,0 -32,-1 l 8,-9 c -13,-3 -27,1 -36,4 -5,-4 0,-8 5,-12 -11,1 -21,4 -30,7 -5,-4 3,-9 7,-13 -18,3 -25,8 -32,13 -5,-6 -1,-10 3,-14 -13,5 -20,11 -27,17 -2,-3 -6,-6 -1,-13 -10,5 -17,11 -22,18 -5,-3 -3,-8 -3,-13 -10,8 -16,16 -23,24 -2,-1 -3,-5 -4,-10 -23,22 -55,78 -9,100 40,-33 88,-57 141,-75 z"
     id="path4"
     inkscape:connector-curvature="0"
     style="fill:#75a928" />
  <path
     d="m 448,520 a 81.5,75.462963 0 1 1 -163,0 81.5,75.462963 0 1 1 163,0 z M 319,306 a 73.219539,86.258635 34 1 1 -95,144 73.219539,86.258635 34 1 1 95,-144 z"
     id="path6"
     inkscape:connector-curvature="0"
     style="fill:#bc1142" />
  <path
     d="M 410,302 A 86.258635,73.219539 56 1 0 505,446 86.258635,73.219539 56 1 0 410,302 Z M 151,342 C 187,332 163,493 134,480 101,453 90,377 151,342 Z"
     id="path8"
     inkscape:connector-curvature="0"
     style="fill:#bc1142" />
  <path
     d="m 572,340 c -37,-10 -13,151 17,138 33,-27 43,-103 -17,-138 z M 448,221 c 63,-11 115,26 113,95 -2,26 -136,-91 -113,-95 z m -174,-2 c -62,-11 -115,26 -113,95 2,26 137,-91 113,-95 z m 91,-16 c -38,-1 -74,28 -74,44 0,21 30,41 74,42 45,0 74,-17 74,-38 0,-23 -41,-49 -74,-48 z m 2,416 c 33,-1 76,11 77,27 0,15 -40,50 -79,49 -41,2 -80,-33 -80,-45 0,-18 49,-32 82,-31 z M 246,525 c 23,28 34,77 15,92 -19,11 -63,6 -95,-39 -22,-38 -19,-77 -4,-89 23,-13 57,5 84,36 z m 237,-9 c -25,30 -39,84 -21,101 18,13 65,11 100,-37 25,-32 17,-87 2,-101 -21,-17 -52,5 -81,37 z"
     id="path10"
     inkscape:connector-curvature="0"
     style="fill:#bc1142" />
</svg>
